<svg width="236" height="48" viewBox="0 0 236 48" fill="none" xmlns="http://www.w3.org/2000/svg">
<path d="M54.5388 39.8936V39.365L57.4786 37.9777V20.0084L54.5388 18.621V18.0925H73.433V23.8401H72.9045L70.5262 19.9093H63.7547V27.903H68.181L70.1629 24.9962H70.6914V32.2302H70.1629L68.181 29.3894H63.7547V37.9777L67.3882 39.365V39.8936H54.5388ZM77.3837 39.8936V39.365L79.6629 38.308V28.4645L77.4828 27.0442V26.5157L84.7498 24.3686H85.2783L85.5756 27.4406H85.7407C86.3133 26.5817 86.8088 25.9321 87.2272 25.4917C87.6456 25.0512 88.0309 24.754 88.3833 24.5998C88.7576 24.4457 89.176 24.3686 89.6385 24.3686C89.8367 24.3686 90.0459 24.3906 90.2661 24.4347C90.4863 24.4787 90.6955 24.5337 90.8937 24.5998C91.2681 24.7099 91.5213 24.8531 91.6534 25.0292C91.8076 25.1834 91.8847 25.3595 91.8847 25.5577C91.8847 25.7119 91.8516 25.8881 91.7856 26.0862L90.8937 28.5967H90.6625L90.0679 28.3985C89.6935 28.2663 89.3632 28.1783 89.077 28.1342C88.8127 28.0682 88.4714 28.0351 88.053 28.0351C87.5685 28.0351 87.1171 28.1562 86.6987 28.3985C86.2803 28.6187 85.9169 28.905 85.6086 29.2573V38.308L88.4824 39.365V39.8936H77.3837ZM102.467 40.2239C100.837 40.2239 99.3948 39.8605 98.1395 39.1338C96.8843 38.3851 95.9044 37.4162 95.1997 36.227C94.5171 35.0159 94.1757 33.7056 94.1757 32.2962C94.1757 30.8869 94.5171 29.5766 95.1997 28.3654C95.9044 27.1543 96.8843 26.1853 98.1395 25.4586C99.3948 24.7319 100.837 24.3686 102.467 24.3686C104.096 24.3686 105.539 24.7319 106.794 25.4586C108.049 26.1853 109.018 27.1543 109.701 28.3654C110.405 29.5766 110.758 30.8869 110.758 32.2962C110.758 33.7056 110.405 35.0159 109.701 36.227C109.018 37.4162 108.049 38.3851 106.794 39.1338C105.539 39.8605 104.096 40.2239 102.467 40.2239ZM102.764 38.4732C103.226 38.4732 103.612 38.2199 103.92 37.7135C104.228 37.207 104.449 36.5463 104.581 35.7315C104.735 34.8947 104.812 33.9698 104.812 32.9569C104.812 31.7237 104.724 30.5896 104.548 29.5546C104.372 28.5196 104.085 27.6828 103.689 27.0442C103.315 26.4056 102.83 26.0862 102.235 26.0862C101.729 26.0862 101.322 26.3395 101.013 26.846C100.705 27.3304 100.474 27.9911 100.32 28.8279C100.188 29.6427 100.121 30.5676 100.121 31.6026C100.121 32.8137 100.21 33.9478 100.386 35.0048C100.584 36.0398 100.87 36.8766 101.245 37.5153C101.641 38.1539 102.147 38.4732 102.764 38.4732ZM114.218 39.8936V39.365L116.497 38.308V28.1342L114.317 27.0442V26.5157L121.584 24.3686H122.113L122.41 26.8129H122.575C123.324 26.0862 124.051 25.5027 124.755 25.0623C125.482 24.5998 126.385 24.3686 127.464 24.3686C128.829 24.3686 129.941 24.7209 130.8 25.4256C131.681 26.1303 132.121 27.1763 132.121 28.5636V38.308L134.401 39.365V39.8936H124.953V39.365L126.176 38.308V29.7858C126.176 29.1472 125.999 28.6627 125.647 28.3324C125.317 27.9801 124.876 27.8039 124.326 27.8039C124.018 27.8039 123.687 27.87 123.335 28.0021C123.005 28.1342 122.707 28.2884 122.443 28.4645V38.308L123.665 39.365V39.8936H114.218ZM143.538 40.2239C142.415 40.2239 141.435 40.1138 140.598 39.8936C139.761 39.6513 138.958 39.343 138.187 38.9687V35.0709H138.715L139.937 36.7555C140.796 37.9667 141.941 38.5723 143.373 38.5723C144.98 38.5723 145.784 38.0548 145.784 37.0198C145.784 36.6674 145.685 36.3702 145.487 36.1279C145.311 35.8857 144.947 35.6324 144.397 35.3682C143.868 35.0819 143.075 34.7406 142.018 34.3442C140.697 33.8377 139.75 33.2211 139.178 32.4944C138.605 31.7677 138.319 30.9309 138.319 29.984C138.319 28.927 138.572 27.9801 139.079 27.1433C139.607 26.2844 140.345 25.6128 141.292 25.1283C142.239 24.6218 143.351 24.3686 144.628 24.3686C145.333 24.3686 146.048 24.4347 146.775 24.5668C147.524 24.6989 148.239 24.9411 148.922 25.2935V29.4225H148.394L147.403 28.0021C146.918 27.3194 146.467 26.8129 146.048 26.4826C145.63 26.1523 145.068 25.9871 144.364 25.9871C143.747 25.9871 143.252 26.1413 142.877 26.4496C142.525 26.7359 142.349 27.1543 142.349 27.7048C142.349 28.0351 142.426 28.3214 142.58 28.5636C142.734 28.8059 143.053 29.0591 143.538 29.3234C144.044 29.5876 144.804 29.9069 145.817 30.2813C146.434 30.5015 147.039 30.7768 147.634 31.1071C148.25 31.4154 148.757 31.8668 149.153 32.4614C149.572 33.056 149.781 33.8707 149.781 34.9057C149.781 35.9848 149.495 36.9207 148.922 37.7135C148.35 38.5062 147.59 39.1228 146.643 39.5632C145.696 40.0037 144.661 40.2239 143.538 40.2239ZM161.554 40.2239C160.122 40.2239 158.856 39.9266 157.755 39.332C156.676 38.7374 155.817 37.9006 155.179 36.8216C154.562 35.7205 154.254 34.4433 154.254 32.9899C154.254 31.2943 154.606 29.8078 155.311 28.5306C156.015 27.2313 157.017 26.2184 158.317 25.4917C159.638 24.7429 161.201 24.3686 163.007 24.3686C164.108 24.3686 165.077 24.5117 165.914 24.798C166.751 25.0843 167.389 25.4807 167.83 25.9871C168.16 26.3835 168.325 26.7138 168.325 26.9781C168.325 27.1323 168.303 27.2644 168.259 27.3745C168.215 27.4846 168.105 27.6167 167.929 27.7709L166.178 29.2573H165.947L164.791 27.6057C164.372 27.0332 164.009 26.5927 163.701 26.2844C163.415 25.9761 163.007 25.822 162.479 25.822C161.576 25.822 160.926 26.3505 160.53 27.4075C160.133 28.4425 159.935 29.7748 159.935 31.4044C159.935 32.7477 160.276 33.8487 160.959 34.7076C161.664 35.5444 162.743 35.9628 164.196 35.9628C164.835 35.9628 165.507 35.9077 166.211 35.7976C166.916 35.6875 167.61 35.4563 168.292 35.1039H168.391V35.7976C167.841 37.0748 166.971 38.1319 165.782 38.9687C164.593 39.8055 163.183 40.2239 161.554 40.2239ZM177.22 21.5939C176.449 21.5939 175.811 21.3407 175.304 20.8342C174.798 20.3277 174.545 19.6891 174.545 18.9183C174.545 18.1476 174.798 17.509 175.304 17.0025C175.811 16.496 176.449 16.2428 177.22 16.2428C177.991 16.2428 178.629 16.496 179.136 17.0025C179.642 17.509 179.896 18.1476 179.896 18.9183C179.896 19.6891 179.642 20.3277 179.136 20.8342C178.629 21.3407 177.991 21.5939 177.22 21.5939ZM172.034 39.8936V39.365L174.313 38.308V28.1342L172.133 26.7138V26.1853L179.731 24.3686H180.259V38.308L182.142 39.365V39.8936H172.034ZM193.396 40.2239C191.04 40.2239 189.179 39.5632 187.814 38.242C186.448 36.9207 185.766 35.17 185.766 32.9899C185.766 31.2943 186.151 29.8078 186.922 28.5306C187.714 27.2313 188.782 26.2184 190.126 25.4917C191.469 24.7429 192.977 24.3686 194.651 24.3686C196.479 24.3686 197.877 24.9632 198.846 26.1523C199.815 27.3194 200.322 28.96 200.366 31.0741L200.267 31.2392H191.447C191.447 31.3934 191.447 31.5585 191.447 31.7347C191.447 32.9899 191.832 34.0139 192.603 34.8067C193.374 35.5774 194.574 35.9628 196.204 35.9628C196.842 35.9628 197.503 35.9077 198.186 35.7976C198.89 35.6875 199.595 35.4563 200.3 35.1039H200.399V35.7976C199.848 37.0748 198.956 38.1319 197.723 38.9687C196.512 39.8055 195.07 40.2239 193.396 40.2239ZM193.726 25.855C193.132 25.855 192.647 26.1964 192.273 26.879C191.898 27.5617 191.656 28.5306 191.546 29.7858H195.939C195.829 28.2663 195.587 27.2313 195.213 26.6808C194.838 26.1303 194.343 25.855 193.726 25.855ZM204.03 39.8936V39.365L206.309 38.308V28.4645L204.129 27.0442V26.5157L211.396 24.3686H211.924L212.222 27.4406H212.387C212.959 26.5817 213.455 25.9321 213.873 25.4917C214.292 25.0512 214.677 24.754 215.029 24.5998C215.404 24.4457 215.822 24.3686 216.285 24.3686C216.483 24.3686 216.692 24.3906 216.912 24.4347C217.132 24.4787 217.342 24.5337 217.54 24.5998C217.914 24.7099 218.167 24.8531 218.3 25.0292C218.454 25.1834 218.531 25.3595 218.531 25.5577C218.531 25.7119 218.498 25.8881 218.432 26.0862L217.54 28.5967H217.309L216.714 28.3985C216.34 28.2663 216.009 28.1783 215.723 28.1342C215.459 28.0682 215.118 28.0351 214.699 28.0351C214.215 28.0351 213.763 28.1562 213.345 28.3985C212.926 28.6187 212.563 28.905 212.255 29.2573V38.308L215.129 39.365V39.8936H204.03ZM226.834 40.2239C225.711 40.2239 224.731 40.1138 223.894 39.8936C223.057 39.6513 222.253 39.343 221.483 38.9687V35.0709H222.011L223.233 36.7555C224.092 37.9667 225.237 38.5723 226.669 38.5723C228.276 38.5723 229.08 38.0548 229.08 37.0198C229.08 36.6674 228.981 36.3702 228.783 36.1279C228.606 35.8857 228.243 35.6324 227.692 35.3682C227.164 35.0819 226.371 34.7406 225.314 34.3442C223.993 33.8377 223.046 33.2211 222.473 32.4944C221.901 31.7677 221.615 30.9309 221.615 29.984C221.615 28.927 221.868 27.9801 222.374 27.1433C222.903 26.2844 223.641 25.6128 224.588 25.1283C225.534 24.6218 226.646 24.3686 227.924 24.3686C228.628 24.3686 229.344 24.4347 230.071 24.5668C230.82 24.6989 231.535 24.9411 232.218 25.2935V29.4225H231.689L230.698 28.0021C230.214 27.3194 229.762 26.8129 229.344 26.4826C228.926 26.1523 228.364 25.9871 227.659 25.9871C227.043 25.9871 226.547 26.1413 226.173 26.4496C225.821 26.7359 225.645 27.1543 225.645 27.7048C225.645 28.0351 225.722 28.3214 225.876 28.5636C226.03 28.8059 226.349 29.0591 226.834 29.3234C227.34 29.5876 228.1 29.9069 229.113 30.2813C229.729 30.5015 230.335 30.7768 230.93 31.1071C231.546 31.4154 232.053 31.8668 232.449 32.4614C232.867 33.056 233.077 33.8707 233.077 34.9057C233.077 35.9848 232.79 36.9207 232.218 37.7135C231.645 38.5062 230.886 39.1228 229.939 39.5632C228.992 40.0037 227.957 40.2239 226.834 40.2239Z" fill="black"/>
<path d="M5.23828 29.1455C4.39749 26.6715 7.17488 26.7617 7.40625 27.9414C7.74942 29.6903 5.54823 30.059 5.23828 29.1455Z" fill="#16007E"/>
<path d="M5.23828 29.1455C4.39749 26.6715 7.17488 26.7617 7.40625 27.9414C7.74942 29.6903 5.54823 30.059 5.23828 29.1455Z" stroke="white"/>
<path d="M22.0117 0.211914C22.4194 -0.457752 22.5293 0.479656 22.6924 2.7207C22.8555 4.96185 24.1118 18.1062 24.4795 20.0488C24.5506 20.4184 24.5998 20.7529 24.6279 21.0498C24.7139 21.5665 24.7494 22.0788 25.1348 22.1709L25.166 22.1797C25.9278 22.3503 26.6701 22.5988 27.3809 22.9219C27.8867 23.017 28.4083 22.9827 28.8975 22.8223C30.6721 22.2878 32.3405 21.448 33.8271 20.3398C36.4465 18.3739 38.8081 16.8561 39.1055 17.1523C39.4702 17.5088 37.8768 19.004 35.2734 21.7559C34.2776 22.8451 33.3733 24.0164 32.5713 25.2559L32.3418 25.5986L32.1348 25.9043L32.0293 26.0527C31.9151 26.2176 31.9523 26.8152 32.1006 27.0781L32.1094 27.0957C32.7883 28.2228 33.1382 29.3306 33.1709 30.1533C33.1857 30.5306 33.18 30.9412 33.1533 31.3867V31.3936C33.137 31.6238 33.2349 32.132 33.4736 32.2256C34.6981 32.6672 35.9761 32.9426 37.2734 33.0449C40.3595 33.2914 42.9621 33.697 42.999 34.0771C43.0376 34.5539 40.9784 34.6162 37.4199 34.9355C35.5505 35.1034 33.8886 35.5787 32.6758 35.8906C32.5617 35.9173 32.0285 36.1652 31.9492 36.3359C31.2688 37.9093 30.2327 39.3033 28.9229 40.4072C25.4534 43.2707 21.3059 42.855 19.1367 40.5381C16.4992 37.7191 17.0159 30.9708 22.6367 31.5352C28.2254 32.0966 26.756 37.239 26.7393 37.2969C26.7783 37.2691 29.2536 35.4869 28.5977 31.5352C27.9364 27.5519 21.7836 24.6629 17.2021 27.8486C12.6207 31.0344 10.6041 41.1665 17.2686 45.1572C23.9046 49.1308 30.8071 44.3177 30.8662 44.2764C30.8291 44.3225 26.8642 49.2236 19.5742 47.71C12.8595 46.3153 9.56993 41.0816 9.08203 35.7129C8.9071 35.2912 8.64858 35.0729 7.84375 34.8457C6.84122 34.5348 5.81582 34.3022 4.77734 34.1504C1.74043 33.7436 -0.0135256 33.6141 0 33.2061C0.0133442 32.8689 2.2186 32.6156 4.82812 32.5176C6.25545 32.4648 7.66187 32.1557 8.97949 31.6035C9.18863 31.4674 9.36935 31.2911 9.51172 31.0859C9.73603 30.351 10.0282 29.6385 10.3848 28.958V28.9414C10.5522 28.6415 10.6398 28.2481 10.5332 27.6543C9.86304 26.5568 8.98411 24.3344 7.41992 22.2002C5.16813 19.1249 3.76385 17.4264 4.17383 17.1289C4.51188 16.8853 6.67653 18.6941 9.04883 20.9902C10.259 22.1576 11.6466 23.125 13.1592 23.8574C13.6381 24.0772 14.3262 24.3752 14.8096 24.0781L14.833 24.0625C15.7133 23.4863 16.6594 23.0172 17.6504 22.665L17.7393 22.6309C18.0892 22.5149 18.6184 22.172 18.7666 21.6895C19.4205 19.5285 20.7758 14.8513 20.8604 12.873C20.9746 10.2571 21.604 0.881699 22.0117 0.211914Z" fill="#16007E"/>
<path d="M22.0117 0.211914C22.4194 -0.457752 22.5293 0.479656 22.6924 2.7207C22.8555 4.96185 24.1118 18.1062 24.4795 20.0488C24.5506 20.4184 24.5998 20.7529 24.6279 21.0498C24.7139 21.5665 24.7494 22.0788 25.1348 22.1709L25.166 22.1797C25.9278 22.3503 26.6701 22.5988 27.3809 22.9219C27.8867 23.017 28.4083 22.9827 28.8975 22.8223C30.6721 22.2878 32.3405 21.448 33.8271 20.3398C36.4465 18.3739 38.8081 16.8561 39.1055 17.1523C39.4702 17.5088 37.8768 19.004 35.2734 21.7559C34.2776 22.8451 33.3733 24.0164 32.5713 25.2559L32.3418 25.5986L32.1348 25.9043L32.0293 26.0527C31.9151 26.2176 31.9523 26.8152 32.1006 27.0781L32.1094 27.0957C32.7883 28.2228 33.1382 29.3306 33.1709 30.1533C33.1857 30.5306 33.18 30.9412 33.1533 31.3867V31.3936C33.137 31.6238 33.2349 32.132 33.4736 32.2256C34.6981 32.6672 35.9761 32.9426 37.2734 33.0449C40.3595 33.2914 42.9621 33.697 42.999 34.0771C43.0376 34.5539 40.9784 34.6162 37.4199 34.9355C35.5505 35.1034 33.8886 35.5787 32.6758 35.8906C32.5617 35.9173 32.0285 36.1652 31.9492 36.3359C31.2688 37.9093 30.2327 39.3033 28.9229 40.4072C25.4534 43.2707 21.3059 42.855 19.1367 40.5381C16.4992 37.7191 17.0159 30.9708 22.6367 31.5352C28.2254 32.0966 26.756 37.239 26.7393 37.2969C26.7783 37.2691 29.2536 35.4869 28.5977 31.5352C27.9364 27.5519 21.7836 24.6629 17.2021 27.8486C12.6207 31.0344 10.6041 41.1665 17.2686 45.1572C23.9046 49.1308 30.8071 44.3177 30.8662 44.2764C30.8291 44.3225 26.8642 49.2236 19.5742 47.71C12.8595 46.3153 9.56993 41.0816 9.08203 35.7129C8.9071 35.2912 8.64858 35.0729 7.84375 34.8457C6.84122 34.5348 5.81582 34.3022 4.77734 34.1504C1.74043 33.7436 -0.0135256 33.6141 0 33.2061C0.0133442 32.8689 2.2186 32.6156 4.82812 32.5176C6.25545 32.4648 7.66187 32.1557 8.97949 31.6035C9.18863 31.4674 9.36935 31.2911 9.51172 31.0859C9.73603 30.351 10.0282 29.6385 10.3848 28.958V28.9414C10.5522 28.6415 10.6398 28.2481 10.5332 27.6543C9.86304 26.5568 8.98411 24.3344 7.41992 22.2002C5.16813 19.1249 3.76385 17.4264 4.17383 17.1289C4.51188 16.8853 6.67653 18.6941 9.04883 20.9902C10.259 22.1576 11.6466 23.125 13.1592 23.8574C13.6381 24.0772 14.3262 24.3752 14.8096 24.0781L14.833 24.0625C15.7133 23.4863 16.6594 23.0172 17.6504 22.665L17.7393 22.6309C18.0892 22.5149 18.6184 22.172 18.7666 21.6895C19.4205 19.5285 20.7758 14.8513 20.8604 12.873C20.9746 10.2571 21.604 0.881699 22.0117 0.211914Z" stroke="white"/>
<path d="M27.7397 16.6133C29.6999 14.8087 30.7389 17.4937 29.7358 18.1914C28.2475 19.2273 27.0121 17.2793 27.7397 16.6133Z" fill="#16007E"/>
<path d="M27.7397 16.6133C29.6999 14.8087 30.7389 17.4937 29.7358 18.1914C28.2475 19.2273 27.0121 17.2793 27.7397 16.6133Z" stroke="white"/>
<path d="M13.208 17.2061C15.1689 15.4019 16.2084 18.0849 15.2051 18.7842C13.7161 19.82 12.4829 17.872 13.208 17.2061Z" fill="#16007E"/>
<path d="M13.208 17.2061C15.1689 15.4019 16.2084 18.0849 15.2051 18.7842C13.7161 19.82 12.4829 17.872 13.208 17.2061Z" stroke="white"/>
<path d="M36.0771 28.3159C35.1954 25.8398 38.1125 25.9335 38.3545 27.1118C38.7152 28.8607 36.4042 29.23 36.0771 28.3159Z" fill="#16007E"/>
<path d="M36.0771 28.3159C35.1954 25.8398 38.1125 25.9335 38.3545 27.1118C38.7152 28.8607 36.4042 29.23 36.0771 28.3159Z" stroke="white"/>
</svg>
